<mxfile host="app.diagrams.net" agent="Mozilla/5.0 (Windows NT 10.0; Win64; x64) AppleWebKit/537.36 (KHTML, like Gecko) Chrome/130.0.0.0 Safari/537.36 Edg/130.0.0.0" version="24.8.0">
  <diagram name="第 1 页" id="Z8dYw2rxD_TA3KUdmVeA">
    <mxGraphModel dx="542" dy="322" grid="1" gridSize="10" guides="1" tooltips="1" connect="1" arrows="1" fold="1" page="1" pageScale="1" pageWidth="827" pageHeight="1169" math="0" shadow="0">
      <root>
        <mxCell id="0" />
        <mxCell id="1" parent="0" />
        <mxCell id="sbGl9fW8TDM9Cy7e1jkT-1" value="智能BI系统" style="rounded=0;whiteSpace=wrap;html=1;fillColor=#dae8fc;strokeColor=#6c8ebf;" parent="1" vertex="1">
          <mxGeometry x="380" y="170" width="130" height="20" as="geometry" />
        </mxCell>
        <mxCell id="sbGl9fW8TDM9Cy7e1jkT-2" value="&lt;div style=&quot;&quot;&gt;用户登录&lt;/div&gt;" style="rounded=0;whiteSpace=wrap;html=1;align=center;fillColor=#dae8fc;strokeColor=#6c8ebf;" parent="1" vertex="1">
          <mxGeometry x="310" y="210" width="20" height="140" as="geometry" />
        </mxCell>
        <mxCell id="sbGl9fW8TDM9Cy7e1jkT-3" value="&lt;div style=&quot;&quot;&gt;图表管理&lt;/div&gt;&lt;div style=&quot;&quot;&gt;模块&lt;/div&gt;" style="rounded=0;whiteSpace=wrap;html=1;align=center;fillColor=#dae8fc;strokeColor=#6c8ebf;" parent="1" vertex="1">
          <mxGeometry x="350" y="210" width="20" height="140" as="geometry" />
        </mxCell>
        <mxCell id="sbGl9fW8TDM9Cy7e1jkT-4" value="&lt;div style=&quot;&quot;&gt;提示词管理&lt;/div&gt;&lt;div style=&quot;&quot;&gt;模块&lt;/div&gt;" style="rounded=0;whiteSpace=wrap;html=1;align=center;fillColor=#dae8fc;strokeColor=#6c8ebf;" parent="1" vertex="1">
          <mxGeometry x="435" y="210" width="20" height="140" as="geometry" />
        </mxCell>
        <mxCell id="sbGl9fW8TDM9Cy7e1jkT-5" value="&lt;div style=&quot;&quot;&gt;图表生成模块&lt;/div&gt;" style="rounded=0;whiteSpace=wrap;html=1;align=center;fillColor=#dae8fc;strokeColor=#6c8ebf;" parent="1" vertex="1">
          <mxGeometry x="394" y="210" width="20" height="140" as="geometry" />
        </mxCell>
        <mxCell id="sbGl9fW8TDM9Cy7e1jkT-6" value="&lt;div style=&quot;&quot;&gt;AI&lt;/div&gt;&lt;div style=&quot;&quot;&gt;服务集成&lt;/div&gt;&lt;div style=&quot;&quot;&gt;模块&lt;/div&gt;" style="rounded=0;whiteSpace=wrap;html=1;align=center;fillColor=#dae8fc;strokeColor=#6c8ebf;" parent="1" vertex="1">
          <mxGeometry x="480" y="210" width="20" height="140" as="geometry" />
        </mxCell>
        <mxCell id="sbGl9fW8TDM9Cy7e1jkT-7" value="&lt;div style=&quot;&quot;&gt;文件上传&lt;/div&gt;&lt;div style=&quot;&quot;&gt;模块&lt;/div&gt;" style="rounded=0;whiteSpace=wrap;html=1;align=center;fillColor=#dae8fc;strokeColor=#6c8ebf;" parent="1" vertex="1">
          <mxGeometry x="520" y="210" width="20" height="140" as="geometry" />
        </mxCell>
        <mxCell id="sbGl9fW8TDM9Cy7e1jkT-8" value="&lt;div style=&quot;&quot;&gt;核心算法&lt;/div&gt;&lt;div style=&quot;&quot;&gt;模块&lt;/div&gt;" style="rounded=0;whiteSpace=wrap;html=1;align=center;fillColor=#dae8fc;strokeColor=#6c8ebf;" parent="1" vertex="1">
          <mxGeometry x="560" y="210" width="20" height="140" as="geometry" />
        </mxCell>
        <mxCell id="sbGl9fW8TDM9Cy7e1jkT-13" value="" style="endArrow=none;html=1;rounded=0;entryX=0.5;entryY=1;entryDx=0;entryDy=0;exitX=0.5;exitY=0;exitDx=0;exitDy=0;fillColor=#dae8fc;strokeColor=#6c8ebf;" parent="1" source="sbGl9fW8TDM9Cy7e1jkT-2" target="sbGl9fW8TDM9Cy7e1jkT-1" edge="1">
          <mxGeometry width="50" height="50" relative="1" as="geometry">
            <mxPoint x="260" y="200" as="sourcePoint" />
            <mxPoint x="350" y="170" as="targetPoint" />
            <Array as="points">
              <mxPoint x="320" y="200" />
              <mxPoint x="390" y="200" />
              <mxPoint x="445" y="200" />
            </Array>
          </mxGeometry>
        </mxCell>
        <mxCell id="sbGl9fW8TDM9Cy7e1jkT-14" value="" style="endArrow=none;html=1;rounded=0;exitX=0.5;exitY=0;exitDx=0;exitDy=0;fillColor=#dae8fc;strokeColor=#6c8ebf;" parent="1" source="sbGl9fW8TDM9Cy7e1jkT-3" edge="1">
          <mxGeometry width="50" height="50" relative="1" as="geometry">
            <mxPoint x="320" y="250" as="sourcePoint" />
            <mxPoint x="360" y="200" as="targetPoint" />
          </mxGeometry>
        </mxCell>
        <mxCell id="sbGl9fW8TDM9Cy7e1jkT-17" value="" style="endArrow=none;html=1;rounded=0;exitX=0.5;exitY=0;exitDx=0;exitDy=0;fillColor=#dae8fc;strokeColor=#6c8ebf;" parent="1" source="sbGl9fW8TDM9Cy7e1jkT-5" edge="1">
          <mxGeometry width="50" height="50" relative="1" as="geometry">
            <mxPoint x="360" y="260" as="sourcePoint" />
            <mxPoint x="404" y="200" as="targetPoint" />
          </mxGeometry>
        </mxCell>
        <mxCell id="sbGl9fW8TDM9Cy7e1jkT-18" value="" style="endArrow=none;html=1;rounded=0;fillColor=#dae8fc;strokeColor=#6c8ebf;" parent="1" edge="1">
          <mxGeometry width="50" height="50" relative="1" as="geometry">
            <mxPoint x="444.9" y="210" as="sourcePoint" />
            <mxPoint x="444.9" y="200" as="targetPoint" />
          </mxGeometry>
        </mxCell>
        <mxCell id="sbGl9fW8TDM9Cy7e1jkT-19" value="" style="endArrow=none;html=1;rounded=0;fillColor=#dae8fc;strokeColor=#6c8ebf;" parent="1" edge="1">
          <mxGeometry width="50" height="50" relative="1" as="geometry">
            <mxPoint x="445" y="200" as="sourcePoint" />
            <mxPoint x="570" y="200" as="targetPoint" />
            <Array as="points" />
          </mxGeometry>
        </mxCell>
        <mxCell id="sbGl9fW8TDM9Cy7e1jkT-21" value="" style="endArrow=none;html=1;rounded=0;exitX=0.5;exitY=0;exitDx=0;exitDy=0;fillColor=#dae8fc;strokeColor=#6c8ebf;" parent="1" source="sbGl9fW8TDM9Cy7e1jkT-8" edge="1">
          <mxGeometry width="50" height="50" relative="1" as="geometry">
            <mxPoint x="550" y="230" as="sourcePoint" />
            <mxPoint x="570" y="200" as="targetPoint" />
          </mxGeometry>
        </mxCell>
        <mxCell id="O3sxbzI2yGwFAt7N3bGT-1" value="&lt;div style=&quot;&quot;&gt;用户&lt;/div&gt;&lt;div style=&quot;&quot;&gt;注册及登录&lt;/div&gt;" style="rounded=0;whiteSpace=wrap;html=1;align=center;fillColor=#dae8fc;strokeColor=#6c8ebf;" vertex="1" parent="1">
          <mxGeometry x="310" y="210" width="20" height="140" as="geometry" />
        </mxCell>
        <mxCell id="O3sxbzI2yGwFAt7N3bGT-3" value="智能BI系统功能模块图" style="text;html=1;align=center;verticalAlign=middle;whiteSpace=wrap;rounded=0;" vertex="1" parent="1">
          <mxGeometry x="374" y="350" width="146" height="30" as="geometry" />
        </mxCell>
      </root>
    </mxGraphModel>
  </diagram>
</mxfile>
